<mxfile host="app.diagrams.net" modified="2022-12-19T17:32:13.576Z" agent="5.0 (Macintosh; Intel Mac OS X 10_15_7) AppleWebKit/537.36 (KHTML, like Gecko) Chrome/108.0.0.0 Safari/537.36" etag="jND9zSW8prtzTiP2Tkfr" version="20.6.2" type="github">
  <diagram id="9YJLU4PZDA50B_HAFXe_" name="第 1 页">
    <mxGraphModel dx="946" dy="648" grid="0" gridSize="10" guides="1" tooltips="1" connect="1" arrows="1" fold="1" page="0" pageScale="1" pageWidth="827" pageHeight="1169" math="0" shadow="1">
      <root>
        <mxCell id="0" />
        <mxCell id="1" parent="0" />
        <mxCell id="uZ-FZ9ZriDHrgORedMcS-3" style="edgeStyle=orthogonalEdgeStyle;rounded=0;orthogonalLoop=1;jettySize=auto;html=1;exitX=0.5;exitY=1;exitDx=0;exitDy=0;entryX=0.5;entryY=0;entryDx=0;entryDy=0;" parent="1" source="uZ-FZ9ZriDHrgORedMcS-1" target="uZ-FZ9ZriDHrgORedMcS-2" edge="1">
          <mxGeometry relative="1" as="geometry" />
        </mxCell>
        <mxCell id="uZ-FZ9ZriDHrgORedMcS-1" value="App.exe" style="rounded=0;whiteSpace=wrap;html=1;" parent="1" vertex="1">
          <mxGeometry x="180" y="200" width="120" height="40" as="geometry" />
        </mxCell>
        <mxCell id="uZ-FZ9ZriDHrgORedMcS-2" value="main.js(主进程入口)" style="rounded=0;whiteSpace=wrap;html=1;" parent="1" vertex="1">
          <mxGeometry x="170" y="280" width="140" height="40" as="geometry" />
        </mxCell>
        <mxCell id="uZ-FZ9ZriDHrgORedMcS-10" style="edgeStyle=orthogonalEdgeStyle;rounded=0;orthogonalLoop=1;jettySize=auto;html=1;exitX=0.5;exitY=1;exitDx=0;exitDy=0;entryX=0.5;entryY=0;entryDx=0;entryDy=0;" parent="1" source="uZ-FZ9ZriDHrgORedMcS-7" target="uZ-FZ9ZriDHrgORedMcS-9" edge="1">
          <mxGeometry relative="1" as="geometry" />
        </mxCell>
        <mxCell id="uZ-FZ9ZriDHrgORedMcS-7" value="App.exe" style="rounded=0;whiteSpace=wrap;html=1;" parent="1" vertex="1">
          <mxGeometry x="480" y="200" width="120" height="40" as="geometry" />
        </mxCell>
        <mxCell id="uZ-FZ9ZriDHrgORedMcS-8" value="*main.js(主进程入口)" style="rounded=0;whiteSpace=wrap;html=1;" parent="1" vertex="1">
          <mxGeometry x="470" y="360" width="140" height="40" as="geometry" />
        </mxCell>
        <mxCell id="uZ-FZ9ZriDHrgORedMcS-11" style="edgeStyle=orthogonalEdgeStyle;rounded=0;orthogonalLoop=1;jettySize=auto;html=1;exitX=0.5;exitY=1;exitDx=0;exitDy=0;entryX=0.5;entryY=0;entryDx=0;entryDy=0;" parent="1" source="uZ-FZ9ZriDHrgORedMcS-9" target="uZ-FZ9ZriDHrgORedMcS-8" edge="1">
          <mxGeometry relative="1" as="geometry" />
        </mxCell>
        <mxCell id="uZ-FZ9ZriDHrgORedMcS-12" style="edgeStyle=orthogonalEdgeStyle;rounded=0;orthogonalLoop=1;jettySize=auto;html=1;" parent="1" source="uZ-FZ9ZriDHrgORedMcS-9" target="uZ-FZ9ZriDHrgORedMcS-8" edge="1">
          <mxGeometry relative="1" as="geometry" />
        </mxCell>
        <mxCell id="uZ-FZ9ZriDHrgORedMcS-9" value="updater.js(代理层)" style="rounded=0;whiteSpace=wrap;html=1;" parent="1" vertex="1">
          <mxGeometry x="480" y="280" width="120" height="40" as="geometry" />
        </mxCell>
        <mxCell id="uZ-FZ9ZriDHrgORedMcS-14" value="旧" style="text;html=1;align=center;verticalAlign=middle;resizable=0;points=[];autosize=1;strokeColor=none;fillColor=none;fontSize=16;" parent="1" vertex="1">
          <mxGeometry x="120" y="150" width="40" height="30" as="geometry" />
        </mxCell>
        <mxCell id="uZ-FZ9ZriDHrgORedMcS-15" value="新" style="text;html=1;align=center;verticalAlign=middle;resizable=0;points=[];autosize=1;strokeColor=none;fillColor=none;fontSize=16;" parent="1" vertex="1">
          <mxGeometry x="430" y="150" width="40" height="30" as="geometry" />
        </mxCell>
        <mxCell id="uZ-FZ9ZriDHrgORedMcS-16" value="&lt;font style=&quot;font-size: 13px;&quot;&gt;安装目录&lt;/font&gt;" style="rounded=0;whiteSpace=wrap;html=1;fontSize=16;" parent="1" vertex="1">
          <mxGeometry x="120" y="512" width="126" height="36" as="geometry" />
        </mxCell>
        <mxCell id="uZ-FZ9ZriDHrgORedMcS-17" value="缓存目录" style="rounded=0;whiteSpace=wrap;html=1;fontSize=13;" parent="1" vertex="1">
          <mxGeometry x="430" y="512" width="130" height="38" as="geometry" />
        </mxCell>
        <mxCell id="uZ-FZ9ZriDHrgORedMcS-19" value="" style="endArrow=none;html=1;rounded=0;fontSize=13;" parent="1" edge="1">
          <mxGeometry width="50" height="50" relative="1" as="geometry">
            <mxPoint x="207" y="575" as="sourcePoint" />
            <mxPoint x="182" y="548" as="targetPoint" />
            <Array as="points">
              <mxPoint x="182" y="575" />
            </Array>
          </mxGeometry>
        </mxCell>
        <mxCell id="uZ-FZ9ZriDHrgORedMcS-20" value="app" style="text;html=1;align=center;verticalAlign=middle;resizable=0;points=[];autosize=1;strokeColor=none;fillColor=none;fontSize=13;" parent="1" vertex="1">
          <mxGeometry x="200" y="560" width="40" height="28" as="geometry" />
        </mxCell>
        <mxCell id="uZ-FZ9ZriDHrgORedMcS-21" value="" style="endArrow=none;html=1;rounded=0;fontSize=13;" parent="1" edge="1">
          <mxGeometry width="50" height="50" relative="1" as="geometry">
            <mxPoint x="243" y="609" as="sourcePoint" />
            <mxPoint x="218" y="582" as="targetPoint" />
            <Array as="points">
              <mxPoint x="218" y="609" />
            </Array>
          </mxGeometry>
        </mxCell>
        <mxCell id="uZ-FZ9ZriDHrgORedMcS-22" value="dist" style="text;html=1;align=center;verticalAlign=middle;resizable=0;points=[];autosize=1;strokeColor=none;fillColor=none;fontSize=13;" parent="1" vertex="1">
          <mxGeometry x="237" y="594" width="38" height="28" as="geometry" />
        </mxCell>
        <mxCell id="uZ-FZ9ZriDHrgORedMcS-24" value="" style="endArrow=none;html=1;rounded=0;fontSize=13;" parent="1" edge="1">
          <mxGeometry width="50" height="50" relative="1" as="geometry">
            <mxPoint x="243" y="698" as="sourcePoint" />
            <mxPoint x="218" y="594" as="targetPoint" />
            <Array as="points">
              <mxPoint x="218" y="698" />
            </Array>
          </mxGeometry>
        </mxCell>
        <mxCell id="uZ-FZ9ZriDHrgORedMcS-25" value="node_modules" style="text;html=1;align=center;verticalAlign=middle;resizable=0;points=[];autosize=1;strokeColor=none;fillColor=none;fontSize=13;" parent="1" vertex="1">
          <mxGeometry x="237" y="683" width="103" height="28" as="geometry" />
        </mxCell>
        <mxCell id="uZ-FZ9ZriDHrgORedMcS-26" value="" style="endArrow=none;html=1;rounded=0;fontSize=13;" parent="1" edge="1">
          <mxGeometry width="50" height="50" relative="1" as="geometry">
            <mxPoint x="243" y="726" as="sourcePoint" />
            <mxPoint x="218" y="699" as="targetPoint" />
            <Array as="points">
              <mxPoint x="218" y="726" />
            </Array>
          </mxGeometry>
        </mxCell>
        <mxCell id="uZ-FZ9ZriDHrgORedMcS-27" value="package.json" style="text;html=1;align=center;verticalAlign=middle;resizable=0;points=[];autosize=1;strokeColor=none;fillColor=none;fontSize=13;" parent="1" vertex="1">
          <mxGeometry x="237" y="711" width="95" height="28" as="geometry" />
        </mxCell>
        <mxCell id="uZ-FZ9ZriDHrgORedMcS-28" value="" style="endArrow=none;html=1;rounded=0;fontSize=13;" parent="1" edge="1">
          <mxGeometry width="50" height="50" relative="1" as="geometry">
            <mxPoint x="281" y="672" as="sourcePoint" />
            <mxPoint x="256" y="645" as="targetPoint" />
            <Array as="points">
              <mxPoint x="256" y="672" />
            </Array>
          </mxGeometry>
        </mxCell>
        <mxCell id="uZ-FZ9ZriDHrgORedMcS-29" value="" style="endArrow=none;html=1;rounded=0;fontSize=13;" parent="1" edge="1">
          <mxGeometry width="50" height="50" relative="1" as="geometry">
            <mxPoint x="281" y="644" as="sourcePoint" />
            <mxPoint x="256" y="617" as="targetPoint" />
            <Array as="points">
              <mxPoint x="256" y="644" />
            </Array>
          </mxGeometry>
        </mxCell>
        <mxCell id="uZ-FZ9ZriDHrgORedMcS-30" value="renderer" style="text;html=1;align=center;verticalAlign=middle;resizable=0;points=[];autosize=1;strokeColor=none;fillColor=none;fontSize=13;" parent="1" vertex="1">
          <mxGeometry x="275" y="629" width="67" height="28" as="geometry" />
        </mxCell>
        <mxCell id="uZ-FZ9ZriDHrgORedMcS-31" value="main" style="text;html=1;align=center;verticalAlign=middle;resizable=0;points=[];autosize=1;strokeColor=none;fillColor=none;fontSize=13;" parent="1" vertex="1">
          <mxGeometry x="275" y="657" width="46" height="28" as="geometry" />
        </mxCell>
        <mxCell id="uZ-FZ9ZriDHrgORedMcS-32" value="" style="endArrow=none;html=1;rounded=0;fontSize=13;" parent="1" edge="1">
          <mxGeometry width="50" height="50" relative="1" as="geometry">
            <mxPoint x="205" y="762" as="sourcePoint" />
            <mxPoint x="182" y="573" as="targetPoint" />
            <Array as="points">
              <mxPoint x="180" y="762" />
            </Array>
          </mxGeometry>
        </mxCell>
        <mxCell id="uZ-FZ9ZriDHrgORedMcS-33" value="app.exe" style="text;html=1;align=center;verticalAlign=middle;resizable=0;points=[];autosize=1;strokeColor=none;fillColor=none;fontSize=13;" parent="1" vertex="1">
          <mxGeometry x="200" y="747" width="64" height="28" as="geometry" />
        </mxCell>
        <mxCell id="uZ-FZ9ZriDHrgORedMcS-37" value="app" style="text;html=1;align=center;verticalAlign=middle;resizable=0;points=[];autosize=1;strokeColor=none;fillColor=none;fontSize=13;" parent="1" vertex="1">
          <mxGeometry x="525.5" y="563" width="40" height="28" as="geometry" />
        </mxCell>
        <mxCell id="uZ-FZ9ZriDHrgORedMcS-38" value="" style="endArrow=none;html=1;rounded=0;fontSize=13;" parent="1" edge="1">
          <mxGeometry width="50" height="50" relative="1" as="geometry">
            <mxPoint x="570" y="616" as="sourcePoint" />
            <mxPoint x="545" y="589" as="targetPoint" />
            <Array as="points">
              <mxPoint x="545" y="616" />
            </Array>
          </mxGeometry>
        </mxCell>
        <mxCell id="uZ-FZ9ZriDHrgORedMcS-39" value="dist" style="text;html=1;align=center;verticalAlign=middle;resizable=0;points=[];autosize=1;strokeColor=none;fillColor=none;fontSize=13;" parent="1" vertex="1">
          <mxGeometry x="564" y="601" width="38" height="28" as="geometry" />
        </mxCell>
        <mxCell id="uZ-FZ9ZriDHrgORedMcS-40" value="" style="endArrow=none;html=1;rounded=0;fontSize=13;" parent="1" edge="1">
          <mxGeometry width="50" height="50" relative="1" as="geometry">
            <mxPoint x="570" y="705" as="sourcePoint" />
            <mxPoint x="545" y="601" as="targetPoint" />
            <Array as="points">
              <mxPoint x="545" y="705" />
            </Array>
          </mxGeometry>
        </mxCell>
        <mxCell id="uZ-FZ9ZriDHrgORedMcS-41" value="node_modules(junction)" style="text;html=1;align=center;verticalAlign=middle;resizable=0;points=[];autosize=1;strokeColor=none;fillColor=none;fontSize=13;" parent="1" vertex="1">
          <mxGeometry x="564" y="690" width="157" height="28" as="geometry" />
        </mxCell>
        <mxCell id="uZ-FZ9ZriDHrgORedMcS-42" value="" style="endArrow=none;html=1;rounded=0;fontSize=13;" parent="1" edge="1">
          <mxGeometry width="50" height="50" relative="1" as="geometry">
            <mxPoint x="570" y="733" as="sourcePoint" />
            <mxPoint x="545" y="706" as="targetPoint" />
            <Array as="points">
              <mxPoint x="545" y="733" />
            </Array>
          </mxGeometry>
        </mxCell>
        <mxCell id="uZ-FZ9ZriDHrgORedMcS-43" value="package.json" style="text;html=1;align=center;verticalAlign=middle;resizable=0;points=[];autosize=1;strokeColor=none;fillColor=none;fontSize=13;" parent="1" vertex="1">
          <mxGeometry x="564" y="718" width="95" height="28" as="geometry" />
        </mxCell>
        <mxCell id="uZ-FZ9ZriDHrgORedMcS-44" value="" style="endArrow=none;html=1;rounded=0;fontSize=13;" parent="1" edge="1">
          <mxGeometry width="50" height="50" relative="1" as="geometry">
            <mxPoint x="608" y="679" as="sourcePoint" />
            <mxPoint x="583" y="652" as="targetPoint" />
            <Array as="points">
              <mxPoint x="583" y="679" />
            </Array>
          </mxGeometry>
        </mxCell>
        <mxCell id="uZ-FZ9ZriDHrgORedMcS-45" value="" style="endArrow=none;html=1;rounded=0;fontSize=13;" parent="1" edge="1">
          <mxGeometry width="50" height="50" relative="1" as="geometry">
            <mxPoint x="608" y="651" as="sourcePoint" />
            <mxPoint x="583" y="624" as="targetPoint" />
            <Array as="points">
              <mxPoint x="583" y="651" />
            </Array>
          </mxGeometry>
        </mxCell>
        <mxCell id="uZ-FZ9ZriDHrgORedMcS-46" value="renderer(junction)" style="text;html=1;align=center;verticalAlign=middle;resizable=0;points=[];autosize=1;strokeColor=none;fillColor=none;fontSize=13;" parent="1" vertex="1">
          <mxGeometry x="602" y="663" width="121" height="28" as="geometry" />
        </mxCell>
        <mxCell id="uZ-FZ9ZriDHrgORedMcS-47" value="main(junction)" style="text;html=1;align=center;verticalAlign=middle;resizable=0;points=[];autosize=1;strokeColor=none;fillColor=none;fontSize=13;" parent="1" vertex="1">
          <mxGeometry x="604" y="638" width="100" height="28" as="geometry" />
        </mxCell>
        <mxCell id="uZ-FZ9ZriDHrgORedMcS-48" value="" style="endArrow=none;html=1;rounded=0;fontSize=13;" parent="1" edge="1">
          <mxGeometry width="50" height="50" relative="1" as="geometry">
            <mxPoint x="524" y="938" as="sourcePoint" />
            <mxPoint x="497" y="740" as="targetPoint" />
            <Array as="points">
              <mxPoint x="499" y="938" />
            </Array>
          </mxGeometry>
        </mxCell>
        <mxCell id="uZ-FZ9ZriDHrgORedMcS-49" value="cache" style="text;html=1;align=center;verticalAlign=middle;resizable=0;points=[];autosize=1;strokeColor=none;fillColor=none;fontSize=13;" parent="1" vertex="1">
          <mxGeometry x="519" y="924" width="53" height="28" as="geometry" />
        </mxCell>
        <mxCell id="uZ-FZ9ZriDHrgORedMcS-50" value="" style="endArrow=none;html=1;rounded=0;fontSize=13;" parent="1" edge="1">
          <mxGeometry width="50" height="50" relative="1" as="geometry">
            <mxPoint x="522" y="577" as="sourcePoint" />
            <mxPoint x="497" y="550" as="targetPoint" />
            <Array as="points">
              <mxPoint x="497" y="577" />
            </Array>
          </mxGeometry>
        </mxCell>
        <mxCell id="uZ-FZ9ZriDHrgORedMcS-52" value="" style="endArrow=none;html=1;rounded=0;fontSize=13;" parent="1" edge="1">
          <mxGeometry width="50" height="50" relative="1" as="geometry">
            <mxPoint x="569.5" y="1096" as="sourcePoint" />
            <mxPoint x="545" y="979" as="targetPoint" />
            <Array as="points">
              <mxPoint x="544.5" y="1096" />
            </Array>
          </mxGeometry>
        </mxCell>
        <mxCell id="uZ-FZ9ZriDHrgORedMcS-53" value="" style="endArrow=none;html=1;rounded=0;fontSize=13;" parent="1" edge="1">
          <mxGeometry width="50" height="50" relative="1" as="geometry">
            <mxPoint x="570" y="979" as="sourcePoint" />
            <mxPoint x="545" y="952" as="targetPoint" />
            <Array as="points">
              <mxPoint x="545" y="979" />
            </Array>
          </mxGeometry>
        </mxCell>
        <mxCell id="uZ-FZ9ZriDHrgORedMcS-54" value="renderer" style="text;html=1;align=center;verticalAlign=middle;resizable=0;points=[];autosize=1;strokeColor=none;fillColor=none;fontSize=13;" parent="1" vertex="1">
          <mxGeometry x="564.5" y="1082" width="67" height="28" as="geometry" />
        </mxCell>
        <mxCell id="uZ-FZ9ZriDHrgORedMcS-55" value="main" style="text;html=1;align=center;verticalAlign=middle;resizable=0;points=[];autosize=1;strokeColor=none;fillColor=none;fontSize=13;" parent="1" vertex="1">
          <mxGeometry x="564" y="965" width="46" height="28" as="geometry" />
        </mxCell>
        <mxCell id="uZ-FZ9ZriDHrgORedMcS-56" value="node_modules" style="text;html=1;align=center;verticalAlign=middle;resizable=0;points=[];autosize=1;strokeColor=none;fillColor=none;fontSize=13;" parent="1" vertex="1">
          <mxGeometry x="563" y="1109" width="103" height="28" as="geometry" />
        </mxCell>
        <mxCell id="uZ-FZ9ZriDHrgORedMcS-57" value="" style="endArrow=none;html=1;rounded=0;fontSize=13;" parent="1" edge="1">
          <mxGeometry width="50" height="50" relative="1" as="geometry">
            <mxPoint x="569.5" y="1123" as="sourcePoint" />
            <mxPoint x="544.5" y="1096" as="targetPoint" />
            <Array as="points">
              <mxPoint x="544.5" y="1123" />
            </Array>
          </mxGeometry>
        </mxCell>
        <mxCell id="uZ-FZ9ZriDHrgORedMcS-58" value="" style="endArrow=none;html=1;rounded=0;fontSize=13;" parent="1" edge="1">
          <mxGeometry width="50" height="50" relative="1" as="geometry">
            <mxPoint x="614" y="1015" as="sourcePoint" />
            <mxPoint x="589" y="988" as="targetPoint" />
            <Array as="points">
              <mxPoint x="589" y="1015" />
            </Array>
          </mxGeometry>
        </mxCell>
        <mxCell id="uZ-FZ9ZriDHrgORedMcS-59" value="current" style="text;html=1;align=center;verticalAlign=middle;resizable=0;points=[];autosize=1;strokeColor=none;fillColor=none;fontSize=13;" parent="1" vertex="1">
          <mxGeometry x="610" y="1000" width="58" height="28" as="geometry" />
        </mxCell>
        <mxCell id="uZ-FZ9ZriDHrgORedMcS-60" value="" style="endArrow=none;html=1;rounded=0;fontSize=13;" parent="1" edge="1">
          <mxGeometry width="50" height="50" relative="1" as="geometry">
            <mxPoint x="614" y="1045" as="sourcePoint" />
            <mxPoint x="589" y="1018" as="targetPoint" />
            <Array as="points">
              <mxPoint x="589" y="1045" />
            </Array>
          </mxGeometry>
        </mxCell>
        <mxCell id="uZ-FZ9ZriDHrgORedMcS-61" value="diff" style="text;html=1;align=center;verticalAlign=middle;resizable=0;points=[];autosize=1;strokeColor=none;fillColor=none;fontSize=13;" parent="1" vertex="1">
          <mxGeometry x="610" y="1031" width="35" height="28" as="geometry" />
        </mxCell>
        <mxCell id="uZ-FZ9ZriDHrgORedMcS-62" value="" style="endArrow=none;html=1;rounded=0;fontSize=13;" parent="1" edge="1">
          <mxGeometry width="50" height="50" relative="1" as="geometry">
            <mxPoint x="614" y="1071" as="sourcePoint" />
            <mxPoint x="589" y="1044" as="targetPoint" />
            <Array as="points">
              <mxPoint x="589" y="1071" />
            </Array>
          </mxGeometry>
        </mxCell>
        <mxCell id="uZ-FZ9ZriDHrgORedMcS-63" value="next" style="text;html=1;align=center;verticalAlign=middle;resizable=0;points=[];autosize=1;strokeColor=none;fillColor=none;fontSize=13;" parent="1" vertex="1">
          <mxGeometry x="610" y="1057" width="43" height="28" as="geometry" />
        </mxCell>
        <mxCell id="uZ-FZ9ZriDHrgORedMcS-67" value="" style="curved=1;endArrow=classic;html=1;rounded=0;fontSize=13;" parent="1" target="uZ-FZ9ZriDHrgORedMcS-37" edge="1">
          <mxGeometry width="50" height="50" relative="1" as="geometry">
            <mxPoint x="256" y="763" as="sourcePoint" />
            <mxPoint x="306" y="713" as="targetPoint" />
            <Array as="points">
              <mxPoint x="424" y="790" />
            </Array>
          </mxGeometry>
        </mxCell>
        <mxCell id="uZ-FZ9ZriDHrgORedMcS-68" value="" style="curved=1;endArrow=classic;html=1;rounded=0;fontSize=13;dashed=1;" parent="1" source="uZ-FZ9ZriDHrgORedMcS-33" target="uZ-FZ9ZriDHrgORedMcS-20" edge="1">
          <mxGeometry width="50" height="50" relative="1" as="geometry">
            <mxPoint x="386" y="749" as="sourcePoint" />
            <mxPoint x="436" y="699" as="targetPoint" />
            <Array as="points">
              <mxPoint x="44" y="707" />
            </Array>
          </mxGeometry>
        </mxCell>
        <mxCell id="uZ-FZ9ZriDHrgORedMcS-69" value="" style="curved=1;endArrow=classic;html=1;rounded=0;dashed=1;fontSize=13;exitX=0.988;exitY=0.786;exitDx=0;exitDy=0;exitPerimeter=0;dashPattern=1 4;" parent="1" source="uZ-FZ9ZriDHrgORedMcS-47" target="uZ-FZ9ZriDHrgORedMcS-59" edge="1">
          <mxGeometry width="50" height="50" relative="1" as="geometry">
            <mxPoint x="386" y="749" as="sourcePoint" />
            <mxPoint x="436" y="699" as="targetPoint" />
            <Array as="points">
              <mxPoint x="804" y="702" />
              <mxPoint x="818" y="874" />
              <mxPoint x="765" y="983" />
            </Array>
          </mxGeometry>
        </mxCell>
        <mxCell id="uZ-FZ9ZriDHrgORedMcS-70" value="软链接" style="edgeLabel;html=1;align=center;verticalAlign=middle;resizable=0;points=[];fontSize=13;" parent="uZ-FZ9ZriDHrgORedMcS-69" vertex="1" connectable="0">
          <mxGeometry x="0.0072" y="-7" relative="1" as="geometry">
            <mxPoint as="offset" />
          </mxGeometry>
        </mxCell>
        <mxCell id="RuwMf6eavU-gGLaVO35--1" value="app.next" style="text;html=1;align=center;verticalAlign=middle;resizable=0;points=[];autosize=1;strokeColor=none;fillColor=none;fontSize=13;" vertex="1" parent="1">
          <mxGeometry x="516" y="743" width="68" height="28" as="geometry" />
        </mxCell>
        <mxCell id="RuwMf6eavU-gGLaVO35--2" value="" style="endArrow=none;html=1;rounded=0;fontSize=13;" edge="1" parent="1">
          <mxGeometry width="50" height="50" relative="1" as="geometry">
            <mxPoint x="570" y="796" as="sourcePoint" />
            <mxPoint x="545" y="769" as="targetPoint" />
            <Array as="points">
              <mxPoint x="545" y="796" />
            </Array>
          </mxGeometry>
        </mxCell>
        <mxCell id="RuwMf6eavU-gGLaVO35--3" value="dist" style="text;html=1;align=center;verticalAlign=middle;resizable=0;points=[];autosize=1;strokeColor=none;fillColor=none;fontSize=13;" vertex="1" parent="1">
          <mxGeometry x="564" y="781" width="38" height="28" as="geometry" />
        </mxCell>
        <mxCell id="RuwMf6eavU-gGLaVO35--4" value="" style="endArrow=none;html=1;rounded=0;fontSize=13;" edge="1" parent="1">
          <mxGeometry width="50" height="50" relative="1" as="geometry">
            <mxPoint x="570" y="885" as="sourcePoint" />
            <mxPoint x="545" y="781" as="targetPoint" />
            <Array as="points">
              <mxPoint x="545" y="885" />
            </Array>
          </mxGeometry>
        </mxCell>
        <mxCell id="RuwMf6eavU-gGLaVO35--5" value="node_modules(junction)" style="text;html=1;align=center;verticalAlign=middle;resizable=0;points=[];autosize=1;strokeColor=none;fillColor=none;fontSize=13;" vertex="1" parent="1">
          <mxGeometry x="564" y="870" width="157" height="28" as="geometry" />
        </mxCell>
        <mxCell id="RuwMf6eavU-gGLaVO35--6" value="" style="endArrow=none;html=1;rounded=0;fontSize=13;" edge="1" parent="1">
          <mxGeometry width="50" height="50" relative="1" as="geometry">
            <mxPoint x="570" y="913" as="sourcePoint" />
            <mxPoint x="545" y="886" as="targetPoint" />
            <Array as="points">
              <mxPoint x="545" y="913" />
            </Array>
          </mxGeometry>
        </mxCell>
        <mxCell id="RuwMf6eavU-gGLaVO35--7" value="package.json" style="text;html=1;align=center;verticalAlign=middle;resizable=0;points=[];autosize=1;strokeColor=none;fillColor=none;fontSize=13;" vertex="1" parent="1">
          <mxGeometry x="564" y="898" width="95" height="28" as="geometry" />
        </mxCell>
        <mxCell id="RuwMf6eavU-gGLaVO35--8" value="" style="endArrow=none;html=1;rounded=0;fontSize=13;" edge="1" parent="1">
          <mxGeometry width="50" height="50" relative="1" as="geometry">
            <mxPoint x="608" y="859" as="sourcePoint" />
            <mxPoint x="583" y="832" as="targetPoint" />
            <Array as="points">
              <mxPoint x="583" y="859" />
            </Array>
          </mxGeometry>
        </mxCell>
        <mxCell id="RuwMf6eavU-gGLaVO35--9" value="" style="endArrow=none;html=1;rounded=0;fontSize=13;" edge="1" parent="1">
          <mxGeometry width="50" height="50" relative="1" as="geometry">
            <mxPoint x="608" y="831" as="sourcePoint" />
            <mxPoint x="583" y="804" as="targetPoint" />
            <Array as="points">
              <mxPoint x="583" y="831" />
            </Array>
          </mxGeometry>
        </mxCell>
        <mxCell id="RuwMf6eavU-gGLaVO35--10" value="renderer(junction)" style="text;html=1;align=center;verticalAlign=middle;resizable=0;points=[];autosize=1;strokeColor=none;fillColor=none;fontSize=13;" vertex="1" parent="1">
          <mxGeometry x="602" y="843" width="121" height="28" as="geometry" />
        </mxCell>
        <mxCell id="RuwMf6eavU-gGLaVO35--11" value="main(junction)" style="text;html=1;align=center;verticalAlign=middle;resizable=0;points=[];autosize=1;strokeColor=none;fillColor=none;fontSize=13;" vertex="1" parent="1">
          <mxGeometry x="604" y="818" width="100" height="28" as="geometry" />
        </mxCell>
        <mxCell id="RuwMf6eavU-gGLaVO35--12" value="" style="endArrow=none;html=1;rounded=0;fontSize=13;" edge="1" parent="1">
          <mxGeometry width="50" height="50" relative="1" as="geometry">
            <mxPoint x="522" y="758" as="sourcePoint" />
            <mxPoint x="497" y="569" as="targetPoint" />
            <Array as="points">
              <mxPoint x="497" y="758" />
            </Array>
          </mxGeometry>
        </mxCell>
        <mxCell id="RuwMf6eavU-gGLaVO35--17" value="" style="curved=1;endArrow=classic;html=1;rounded=0;dashed=1;dashPattern=1 4;" edge="1" parent="1" source="RuwMf6eavU-gGLaVO35--11" target="uZ-FZ9ZriDHrgORedMcS-63">
          <mxGeometry width="50" height="50" relative="1" as="geometry">
            <mxPoint x="733" y="926" as="sourcePoint" />
            <mxPoint x="783" y="876" as="targetPoint" />
            <Array as="points">
              <mxPoint x="744" y="828" />
              <mxPoint x="781" y="876" />
              <mxPoint x="760" y="1071" />
            </Array>
          </mxGeometry>
        </mxCell>
        <mxCell id="RuwMf6eavU-gGLaVO35--18" value="软连接" style="edgeLabel;html=1;align=center;verticalAlign=middle;resizable=0;points=[];" vertex="1" connectable="0" parent="RuwMf6eavU-gGLaVO35--17">
          <mxGeometry x="-0.3697" y="-4" relative="1" as="geometry">
            <mxPoint as="offset" />
          </mxGeometry>
        </mxCell>
        <mxCell id="RuwMf6eavU-gGLaVO35--19" value="" style="curved=1;endArrow=classic;html=1;rounded=0;dashed=1;" edge="1" parent="1" source="uZ-FZ9ZriDHrgORedMcS-33" target="RuwMf6eavU-gGLaVO35--1">
          <mxGeometry width="50" height="50" relative="1" as="geometry">
            <mxPoint x="380" y="783" as="sourcePoint" />
            <mxPoint x="430" y="733" as="targetPoint" />
            <Array as="points">
              <mxPoint x="275" y="827" />
              <mxPoint x="361" y="857" />
              <mxPoint x="476" y="827" />
            </Array>
          </mxGeometry>
        </mxCell>
      </root>
    </mxGraphModel>
  </diagram>
</mxfile>
